<svg width="366" height="366" viewBox="0 0 366 366" fill="none" xmlns="http://www.w3.org/2000/svg">
<path fill-rule="evenodd" clip-rule="evenodd" d="M183 366C284.068 366 366 284.068 366 183C366 81.9319 284.068 0 183 0C81.9319 0 0 81.9319 0 183C0 284.068 81.9319 366 183 366ZM161.63 63.3704L160.651 109.868C160.651 111.702 159.408 114.074 157.072 114.074H155.82C153.484 114.074 152.241 111.469 152.241 109.586L148.502 63.0043C147.546 63.0087 146.567 63.0087 145.545 63.0087C144.625 63.0087 143.736 63.0063 142.874 63.0041C142.062 63.002 141.273 63 140.506 63L136.768 110.225C136.781 111.931 135.534 114.073 133.197 114.073H131.945C129.609 114.073 128.366 111.468 128.366 109.586L127.396 63.5547C115 65.5069 115 74.2035 115 112.287V112.328C115 125.186 120.109 136.383 129.234 142.4C130.481 143.225 131.8 143.952 133.197 144.573C134.581 145.186 136.045 145.68 137.57 146.072L133.378 306.364C133.378 309.71 140.502 312.443 143.848 312.443H149.358C152.704 312.443 159.828 309.719 159.828 306.373L155.622 145.481C157.16 144.957 158.602 144.282 159.982 143.524C161.679 142.594 163.248 141.496 164.694 140.249C172.029 133.914 176.094 123.784 176.094 112.331C176.094 72.7952 175.331 64.9089 161.63 63.3704ZM180 246.472C180 276.439 202.335 309 218.358 309C235.352 309 256.716 276.439 256.716 246.472C256.716 221.006 244.311 208.6 227.584 205.446L230.648 75.414C230.809 68.605 225.26 63 218.358 63C211.456 63 205.907 68.605 206.067 75.414L209.131 205.446C192.405 208.6 180 221.006 180 246.472Z" fill="white"/>
</svg>
